<?xml version="1.0" encoding="UTF-8" standalone="no"?>
<!-- Created with Inkscape (http://www.inkscape.org/) -->

<svg
   width="238.125mm"
   height="171.97917mm"
   viewBox="0 0 238.125 171.97917"
   version="1.1"
   id="svg5"
   xml:space="preserve"
   inkscape:export-filename="bitmap.svg"
   inkscape:export-xdpi="96"
   inkscape:export-ydpi="96"
   sodipodi:docname="blog.svg"
   inkscape:version="1.2.2 (b0a8486541, 2022-12-01)"
   xmlns:inkscape="http://www.inkscape.org/namespaces/inkscape"
   xmlns:sodipodi="http://sodipodi.sourceforge.net/DTD/sodipodi-0.dtd"
   xmlns="http://www.w3.org/2000/svg"
   xmlns:svg="http://www.w3.org/2000/svg"><sodipodi:namedview
     id="namedview7"
     pagecolor="#ffffff"
     bordercolor="#000000"
     borderopacity="0.24705882"
     inkscape:showpageshadow="2"
     inkscape:pageopacity="0.0"
     inkscape:pagecheckerboard="0"
     inkscape:deskcolor="#d1d1d1"
     inkscape:document-units="mm"
     showgrid="false"
     inkscape:zoom="1.0398006"
     inkscape:cx="427.96668"
     inkscape:cy="314.96424"
     inkscape:window-width="1898"
     inkscape:window-height="1010"
     inkscape:window-x="11"
     inkscape:window-y="59"
     inkscape:window-maximized="1"
     inkscape:current-layer="layer1"><inkscape:grid
       type="xygrid"
       id="grid126" /></sodipodi:namedview><defs
     id="defs2"><linearGradient
       id="A"
       x1="811.527"
       y1="574.895"
       x2="665.255"
       y2="573.732"
       gradientUnits="userSpaceOnUse"><stop
         offset="0"
         stop-color="#366a96"
         id="stop1512" /><stop
         offset="1"
         stop-color="#3679b0"
         id="stop1514" /></linearGradient><linearGradient
       id="B"
       x1="862.824"
       y1="642.176"
       x2="573.276"
       y2="642.176"
       gradientUnits="userSpaceOnUse"><stop
         offset="0"
         stop-color="#ffc836"
         id="stop1517" /><stop
         offset="1"
         stop-color="#ffe873"
         id="stop1519" /></linearGradient></defs><g
     inkscape:label="Layer 1"
     inkscape:groupmode="layer"
     id="layer1"
     transform="translate(-95.418556,-126.78654)"
     style="display:inline;fill:#8fbcbb"><rect
       style="fill:#88c0d0;fill-opacity:1;stroke-width:0.264583"
       id="rect1196"
       width="238.43665"
       height="172.04556"
       x="95.255379"
       y="126.95152" /></g><circle
     style="display:inline;fill:#81a1c1;fill-opacity:1;stroke-width:0.225853"
     id="path1193"
     cx="119.0625"
     cy="85.989586"
     r="64.370522" /><g
     id="g1166"
     transform="matrix(1.3536112,0,0,1.3536112,75.205575,41.997222)"><path
       d="m 14,9 h 32.9 c 2.8,0 5,2.2 5,5 V 31.6 L 52,51 c 0,2.8 -2.2,5 -5,5 H 14"
       fill="#e5e5e5"
       id="path1125" /><path
       d="m 33.4,43.4 c 0,0 -2.6,-9.1 9.6,-15.2 -0.5,2.6 -0.7,3.4 -0.7,3.4 L 45.4,27 c 0,0 10.4,-1 14.4,-6.1 -1,3.9 -3.1,7.1 -3.1,7.1 l -2.9,2 2.3,-0.2 c 0,0 -1.5,3.9 -3.4,5.6 -1,0.2 -4.7,0.5 -4.7,0.5 l 3.2,1.4 c 0,0 -2.2,2.6 -4.1,3.9 -2.1,0.6 -6,-1.2 -6,-1.2 0,0 0.9,1.6 3.1,2.3 -2.5,2.3 -8.2,1.6 -10.8,1.1 z"
       fill="#ffd766"
       id="path1127" /><path
       d="m 33.4,43.4 c 0,0 -2.6,-9.1 9.6,-15.2 -0.5,2.6 -0.7,3.4 -0.7,3.4 L 45.4,27 c 0,0 10.4,-1 14.4,-6.1 -1,3.9 -3.1,7.1 -3.1,7.1 l -2.9,2 2.3,-0.2 c 0,0 -1.5,3.9 -3.4,5.6 -1,0.2 -4.7,0.5 -4.7,0.5 l 3.2,1.4 c 0,0 -2.2,2.6 -4.1,3.9 -2.1,0.6 -6,-1.2 -6,-1.2 0,0 0.9,1.6 3.1,2.3 -2.5,2.3 -8.2,1.6 -10.8,1.1 z"
       fill="none"
       stroke="#2c3e50"
       stroke-linecap="round"
       stroke-linejoin="round"
       stroke-miterlimit="10"
       stroke-width="2"
       id="path1129" /><path
       d="m 29,50 c 0,0 4.4,-11 20.3,-19.8"
       fill="none"
       stroke="#2c3e50"
       stroke-linecap="round"
       stroke-linejoin="round"
       stroke-miterlimit="10"
       stroke-width="2"
       id="path1131" /><path
       d="m 15,51 c 0,2.8 -2.2,5 -5,5 h 0.2 C 7.3,56 5,54 5,51 h 7"
       fill="#b7b7b7"
       id="path1133" /><path
       d="M 15,14 C 15,11.2 12.8,9 10,9 h 0.2 C 7.3,9 5,11 5,14 h 7"
       fill="#b7b7b7"
       id="path1135" /><path
       d="M 52,41.5 V 51 c 0,2.8 -2.2,5 -5,5 H 10.2 C 7.3,56 5,54 5,51 h 7"
       fill="none"
       stroke="#2c3e50"
       stroke-linecap="round"
       stroke-linejoin="round"
       stroke-miterlimit="10"
       stroke-width="2"
       id="path1137" /><path
       d="m 10,9 h 36.9 c 2.8,0 5,2.2 5,5 v 7.8"
       fill="none"
       stroke="#2c3e50"
       stroke-linecap="round"
       stroke-linejoin="round"
       stroke-miterlimit="10"
       stroke-width="2"
       id="path1139" /><path
       d="M 10.3,56 C 15.4,56 15,50.5 15,50.5 V 14 C 15,11.2 12.8,9 10,9 7.2,9 5,11.2 5,14 h 7"
       fill="none"
       stroke="#2c3e50"
       stroke-linecap="round"
       stroke-linejoin="round"
       stroke-miterlimit="10"
       stroke-width="2"
       id="path1141" /><line
       fill="none"
       stroke="#2c3e50"
       stroke-linecap="round"
       stroke-linejoin="round"
       stroke-miterlimit="10"
       stroke-width="2"
       x1="25"
       x2="43"
       y1="17"
       y2="17"
       id="line1143" /><line
       fill="none"
       stroke="#2c3e50"
       stroke-linecap="round"
       stroke-linejoin="round"
       stroke-miterlimit="10"
       stroke-width="2"
       x1="25"
       x2="43"
       y1="22"
       y2="22"
       id="line1145" /><line
       fill="none"
       stroke="#2c3e50"
       stroke-linecap="round"
       stroke-linejoin="round"
       stroke-miterlimit="10"
       stroke-width="2"
       x1="25"
       x2="38"
       y1="27"
       y2="27"
       id="line1147" /></g></svg>
