<?xml version="1.0" encoding="UTF-8" standalone="no"?>
<!-- Created with Inkscape (http://www.inkscape.org/) -->

<svg
   width="238.125mm"
   height="171.97917mm"
   viewBox="0 0 238.125 171.97917"
   version="1.1"
   id="svg5"
   xml:space="preserve"
   inkscape:export-filename="bitmap.svg"
   inkscape:export-xdpi="96"
   inkscape:export-ydpi="96"
   sodipodi:docname="phd.svg"
   inkscape:version="1.2.2 (b0a8486541, 2022-12-01)"
   xmlns:inkscape="http://www.inkscape.org/namespaces/inkscape"
   xmlns:sodipodi="http://sodipodi.sourceforge.net/DTD/sodipodi-0.dtd"
   xmlns="http://www.w3.org/2000/svg"
   xmlns:svg="http://www.w3.org/2000/svg"><sodipodi:namedview
     id="namedview7"
     pagecolor="#ffffff"
     bordercolor="#000000"
     borderopacity="0.24705882"
     inkscape:showpageshadow="2"
     inkscape:pageopacity="0.0"
     inkscape:pagecheckerboard="0"
     inkscape:deskcolor="#d1d1d1"
     inkscape:document-units="mm"
     showgrid="false"
     inkscape:zoom="1.0398006"
     inkscape:cx="427.96668"
     inkscape:cy="314.96424"
     inkscape:window-width="1898"
     inkscape:window-height="1010"
     inkscape:window-x="11"
     inkscape:window-y="59"
     inkscape:window-maximized="1"
     inkscape:current-layer="svg5"><inkscape:grid
       type="xygrid"
       id="grid126" /></sodipodi:namedview><defs
     id="defs2"><linearGradient
       id="A"
       x1="811.527"
       y1="574.895"
       x2="665.255"
       y2="573.732"
       gradientUnits="userSpaceOnUse"><stop
         offset="0"
         stop-color="#366a96"
         id="stop1512" /><stop
         offset="1"
         stop-color="#3679b0"
         id="stop1514" /></linearGradient><linearGradient
       id="B"
       x1="862.824"
       y1="642.176"
       x2="573.276"
       y2="642.176"
       gradientUnits="userSpaceOnUse"><stop
         offset="0"
         stop-color="#ffc836"
         id="stop1517" /><stop
         offset="1"
         stop-color="#ffe873"
         id="stop1519" /></linearGradient></defs><g
     inkscape:label="Layer 1"
     inkscape:groupmode="layer"
     id="layer1"
     transform="translate(-95.418556,-126.78654)"
     style="display:inline;fill:#8fbcbb"><rect
       style="fill:#8fbcbb;fill-opacity:1;stroke-width:0.264583"
       id="rect1196"
       width="238.43665"
       height="172.04556"
       x="95.255379"
       y="126.95152" /></g><g
     id="g1027"
     transform="matrix(0.25172923,0,0,0.25172923,54.619817,21.546903)"><path
       d="M 512,256.005 C 512,397.518 397.216,512 255.803,512 114.785,512 0,397.518 0,256.005 0,114.49 114.785,0 255.803,0 397.216,0 512,114.49 512,256.005 Z"
       style="clip-rule:evenodd;fill:#90dfaa;fill-rule:evenodd"
       id="path1011" /><path
       d="m 442.499,201.143 c -0.797,-2.779 -3.584,-4.367 -5.966,-3.971 -119.957,7.95 -241.105,7.95 -361.063,0 -2.779,-0.396 -5.161,1.588 -6.363,4.368 -3.97,13.121 -6.347,26.638 -6.347,39.36 0,3.176 2.775,5.958 6.347,5.958 h 373.785 c 3.572,0 6.352,-2.782 6.352,-5.958 0,-11.531 -0.793,-25.048 -6.745,-39.757 z"
       style="clip-rule:evenodd;fill:#ffffff;fill-rule:evenodd"
       id="path1013" /><path
       d="m 455.197,240.105 c 0,-3.185 -2.779,-5.567 -5.953,-5.567 H 287.181 c -3.173,0 -5.952,2.78 -5.952,6.362 H 231.17 c 0,-3.582 -2.78,-6.362 -6.347,-6.362 H 62.76 c -3.178,0 -5.953,2.383 -6.351,5.567 0,1.588 -2.394,34.976 13.096,65.98 1.203,1.997 3.186,3.188 5.567,3.188 0.398,0 0.398,0 0.398,0 48.457,-3.188 97.308,-5.173 145.781,-5.572 l 28.599,-0.394 40.903,0.394 c 48.469,0.399 97.324,2.384 145.78,5.572 2.775,0.394 5.567,-1.594 6.359,-4.38 15.096,-30.609 12.703,-63.2 12.305,-64.788 z"
       style="clip-rule:evenodd;fill:#e6e9ee;fill-rule:evenodd"
       id="path1015" /><polygon
       points="240.707,269.522 255.011,273.496 269.708,277.473 251.041,348.626 239.123,333.916 222.044,341.07 "
       style="clip-rule:evenodd;fill:#2b3b4e;fill-rule:evenodd"
       id="polygon1017" /><polygon
       points="276.055,271.112 264.548,280.25 252.629,289.79 298.307,347.435 303.463,329.943 321.732,329.15 "
       style="clip-rule:evenodd;fill:#324a5e;fill-rule:evenodd"
       id="polygon1019" /><path
       d="m 306.242,247.254 v 0 c 2.394,-3.971 1.191,-8.745 -2.381,-11.128 v 0 c -2.779,-1.984 -4.364,-4.772 -3.571,-8.344 v 0 c 0.792,-4.376 -1.983,-8.349 -6.348,-9.142 v 0 c -3.189,-0.398 -5.571,-3.184 -6.363,-6.362 v 0 c -0.796,-4.375 -5.16,-7.155 -9.541,-6.362 v 0 c -3.567,0.796 -6.347,-0.396 -8.33,-3.184 v 0 c -2.381,-3.971 -7.554,-4.764 -11.126,-1.984 v 0 c -2.779,1.588 -5.953,1.588 -8.732,0 v 0 c -3.584,-2.383 -8.745,-1.191 -11.126,2.389 v 0 c -1.588,2.779 -4.762,3.971 -8.346,3.575 v 0 c -4.364,-0.796 -8.334,1.986 -9.126,5.963 v 0 c -0.398,3.574 -3.19,5.965 -6.364,6.759 v 0 c -4.368,0.795 -7.143,5.165 -5.953,9.54 v 0 c 0.394,3.176 -0.796,6.36 -3.572,8.345 v 0 c -3.982,2.391 -4.38,7.554 -1.999,11.134 v 0 c 1.601,2.782 1.999,5.958 0,8.745 v 0 c -2.381,3.575 -1.191,8.744 2.393,11.127 v 0 c 2.78,1.598 4.368,4.77 3.572,7.949 v 0 c -0.792,4.775 1.987,8.752 6.351,9.548 v 0 c 3.19,0.396 5.571,3.173 6.364,5.958 v 0 c 0.792,4.371 5.16,7.561 9.524,6.36 v 0 c 3.584,-0.798 6.363,0.794 8.347,3.579 v 0 c 2.381,3.574 7.542,4.367 11.125,1.983 v 0 c 2.78,-1.585 5.953,-1.983 8.733,0 v 0 c 3.571,2.384 8.744,1.192 11.125,-2.382 v 0 c 1.585,-2.786 4.763,-4.372 8.347,-3.579 v 0 c 4.364,0.793 8.334,-1.984 9.126,-6.364 v 0 c 0.398,-3.172 3.174,-5.556 5.966,-6.352 v 0 c 4.763,-0.798 7.542,-5.169 6.351,-9.549 v 0 c -0.397,-3.575 0.793,-6.754 3.572,-8.344 v 0 c 3.982,-2.38 4.376,-7.552 1.982,-11.127 v 0 c -1.982,-2.389 -1.982,-6.362 0,-8.751 z"
       style="clip-rule:evenodd;fill:#ff7058;fill-rule:evenodd"
       id="path1021" /><path
       d="m 291.151,244.475 c -4.368,-20.276 -24.223,-33.389 -44.491,-29.02 -20.252,4.375 -32.963,24.253 -28.997,44.521 4.381,20.274 24.235,32.999 44.491,29.018 20.265,-4.365 33.373,-24.242 28.997,-44.519 z"
       style="clip-rule:evenodd;fill:#ffffff;fill-rule:evenodd"
       id="path1023" /><path
       d="m 286.783,245.267 c -3.572,-17.486 -21.045,-29.019 -38.933,-25.437 -17.871,3.971 -29.391,21.466 -25.409,38.954 3.572,17.883 21.044,29.42 38.916,25.845 17.888,-3.981 28.997,-21.471 25.426,-39.362 z"
       style="clip-rule:evenodd;fill:#ff7058;fill-rule:evenodd"
       id="path1025" /></g></svg>
