<?xml version="1.0" encoding="UTF-8" standalone="no"?>
<!-- Created with Inkscape (http://www.inkscape.org/) -->

<svg
   width="238.125mm"
   height="171.97917mm"
   viewBox="0 0 238.125 171.97917"
   version="1.1"
   id="svg5"
   xml:space="preserve"
   inkscape:export-filename="bitmap.svg"
   inkscape:export-xdpi="96"
   inkscape:export-ydpi="96"
   sodipodi:docname="python.svg"
   inkscape:version="1.2.2 (b0a8486541, 2022-12-01)"
   xmlns:inkscape="http://www.inkscape.org/namespaces/inkscape"
   xmlns:sodipodi="http://sodipodi.sourceforge.net/DTD/sodipodi-0.dtd"
   xmlns="http://www.w3.org/2000/svg"
   xmlns:svg="http://www.w3.org/2000/svg"><sodipodi:namedview
     id="namedview7"
     pagecolor="#ffffff"
     bordercolor="#000000"
     borderopacity="0.24705882"
     inkscape:showpageshadow="2"
     inkscape:pageopacity="0.0"
     inkscape:pagecheckerboard="0"
     inkscape:deskcolor="#d1d1d1"
     inkscape:document-units="mm"
     showgrid="false"
     inkscape:zoom="0.95223713"
     inkscape:cx="458.9193"
     inkscape:cy="358.62916"
     inkscape:window-width="1898"
     inkscape:window-height="1010"
     inkscape:window-x="11"
     inkscape:window-y="59"
     inkscape:window-maximized="1"
     inkscape:current-layer="svg5"><inkscape:grid
       type="xygrid"
       id="grid126" /></sodipodi:namedview><defs
     id="defs2"><linearGradient
       id="A"
       x1="811.527"
       y1="574.895"
       x2="665.255"
       y2="573.732"
       gradientUnits="userSpaceOnUse"><stop
         offset="0"
         stop-color="#366a96"
         id="stop1512" /><stop
         offset="1"
         stop-color="#3679b0"
         id="stop1514" /></linearGradient><linearGradient
       id="B"
       x1="862.824"
       y1="642.176"
       x2="573.276"
       y2="642.176"
       gradientUnits="userSpaceOnUse"><stop
         offset="0"
         stop-color="#ffc836"
         id="stop1517" /><stop
         offset="1"
         stop-color="#ffe873"
         id="stop1519" /></linearGradient></defs><g
     inkscape:label="Layer 1"
     inkscape:groupmode="layer"
     id="layer1"
     transform="translate(-95.418556,-126.78654)"
     style="display:inline;fill:#d08770"><rect
       style="fill:#a3be8c;fill-opacity:1;stroke-width:0.264583"
       id="rect1196"
       width="238.43665"
       height="172.04556"
       x="95.255379"
       y="126.95152" /></g><circle
     style="display:inline;fill:#4c566a;fill-opacity:1;stroke-width:0.225853"
     id="path1193"
     cx="119.0625"
     cy="85.989586"
     r="64.370522" /><g
     inkscape:groupmode="layer"
     id="layer2"
     inkscape:label="Layer 2"
     style="display:inline" /><g
     transform="matrix(0.44762455,0,0,0.43762844,-222.94029,-184.0038)"
     id="g1530"><path
       d="m 716.255,544.487 c 0,-13.623 3.653,-21.034 23.822,-24.563 13.693,-2.4 31.25,-2.7 47.627,0 12.935,2.135 23.822,11.77 23.822,24.563 v 44.945 c 0,13.182 -10.57,23.98 -23.822,23.98 h -47.627 c -16.164,0 -29.787,13.782 -29.787,29.363 v 21.564 h -16.376 c -13.852,0 -21.917,-9.988 -25.305,-23.964 -4.57,-18.776 -4.376,-29.963 0,-47.945 3.794,-15.687 15.917,-23.964 29.77,-23.964 h 65.52 v -6 h -47.645 v -17.98 z"
       fill="url(#A)"
       id="path1524"
       style="fill:#5e81ac" /><path
       d="m 811.527,688.32 c 0,13.623 -11.823,20.523 -23.822,23.964 -18.052,5.188 -32.54,4.394 -47.627,0 -12.6,-3.67 -23.822,-11.17 -23.822,-23.964 v -44.945 c 0,-12.935 10.782,-23.98 23.822,-23.98 h 47.627 c 15.864,0 29.787,-13.71 29.787,-29.963 v -20.964 h 17.858 c 13.87,0 20.4,10.305 23.822,23.964 4.764,18.97 4.976,33.157 0,47.945 -4.817,14.364 -9.97,23.964 -23.822,23.964 H 763.9 v 6 h 47.627 v 17.98 z"
       fill="url(#B)"
       id="path1526"
       style="fill:#ebcb8b" /><path
       d="m 728.166,541.505 c 0,-4.976 3.988,-9 8.93,-9 4.923,0 8.93,4.023 8.93,9 0,4.96 -4.006,8.982 -8.93,8.982 -4.94,0 -8.93,-4.023 -8.93,-8.982 z m 53.59,149.798 c 0,-4.96 4.006,-8.982 8.93,-8.982 4.94,0 8.93,4.023 8.93,8.982 0,4.976 -3.988,9 -8.93,9 -4.923,0 -8.93,-4.023 -8.93,-9 z"
       fill="#ffffff"
       id="path1528"
       style="fill:#eceff4" /></g></svg>
