<?xml version="1.0" encoding="UTF-8" standalone="no"?>
<!-- Created with Inkscape (http://www.inkscape.org/) -->

<svg
   width="238.125mm"
   height="171.97917mm"
   viewBox="0 0 238.125 171.97917"
   version="1.1"
   id="svg5"
   xml:space="preserve"
   inkscape:export-filename="bitmap.svg"
   inkscape:export-xdpi="96"
   inkscape:export-ydpi="96"
   sodipodi:docname="upstream.svg"
   inkscape:version="1.2.2 (b0a8486541, 2022-12-01)"
   xmlns:inkscape="http://www.inkscape.org/namespaces/inkscape"
   xmlns:sodipodi="http://sodipodi.sourceforge.net/DTD/sodipodi-0.dtd"
   xmlns="http://www.w3.org/2000/svg"
   xmlns:svg="http://www.w3.org/2000/svg"><sodipodi:namedview
     id="namedview7"
     pagecolor="#ffffff"
     bordercolor="#000000"
     borderopacity="0.24705882"
     inkscape:showpageshadow="2"
     inkscape:pageopacity="0.0"
     inkscape:pagecheckerboard="0"
     inkscape:deskcolor="#d1d1d1"
     inkscape:document-units="mm"
     showgrid="false"
     inkscape:zoom="0.83238987"
     inkscape:cx="583.86102"
     inkscape:cy="342.98832"
     inkscape:window-width="1898"
     inkscape:window-height="1010"
     inkscape:window-x="11"
     inkscape:window-y="59"
     inkscape:window-maximized="1"
     inkscape:current-layer="svg5"><inkscape:grid
       type="xygrid"
       id="grid126" /></sodipodi:namedview><defs
     id="defs2"><linearGradient
       id="A"
       x1="811.527"
       y1="574.895"
       x2="665.255"
       y2="573.732"
       gradientUnits="userSpaceOnUse"><stop
         offset="0"
         stop-color="#366a96"
         id="stop1512" /><stop
         offset="1"
         stop-color="#3679b0"
         id="stop1514" /></linearGradient><linearGradient
       id="B"
       x1="862.824"
       y1="642.176"
       x2="573.276"
       y2="642.176"
       gradientUnits="userSpaceOnUse"><stop
         offset="0"
         stop-color="#ffc836"
         id="stop1517" /><stop
         offset="1"
         stop-color="#ffe873"
         id="stop1519" /></linearGradient></defs><g
     inkscape:label="Layer 1"
     inkscape:groupmode="layer"
     id="layer1"
     transform="translate(-95.418556,-126.78654)"
     style="display:inline;fill:#d08770"><rect
       style="fill:#ebcb8b;fill-opacity:1;stroke-width:0.264583"
       id="rect1196"
       width="238.43665"
       height="172.04556"
       x="95.255379"
       y="126.95152" /></g><circle
     style="display:inline;fill:#eceff4;fill-opacity:1;stroke-width:0.225853"
     id="path1193"
     cx="119.0625"
     cy="85.989586"
     r="64.370522" /><g
     inkscape:groupmode="layer"
     id="layer2"
     inkscape:label="Layer 2"
     style="display:inline" /><path
     d="m 126.72572,46.919471 c 1.32337,0.584745 2.18511,1.908111 2.18511,3.369971 v 6.155197 h 2.46207 c 10.8793,0 19.69664,8.81732 19.69664,19.69663 v 25.651791 c 4.35479,1.89272 7.38623,6.23214 7.38623,11.2794 0,6.80149 -5.5089,12.31039 -12.31039,12.31039 -6.8015,0 -12.3104,-5.5089 -12.3104,-12.31039 0,-5.04726 3.03142,-9.38668 7.38623,-11.2794 V 76.141269 c 0,-5.43196 -4.41634,-9.84831 -9.84831,-9.84831 h -2.46207 v 6.15519 c 0,1.46186 -0.86174,2.78523 -2.18511,3.36998 -1.32336,0.58474 -2.89293,0.35392 -3.9701,-0.63091 L 110.44523,64.10786 c -0.7848,-0.707848 -1.21566,-1.692679 -1.21566,-2.739063 0,-1.046383 0.44625,-2.046602 1.21566,-2.739063 l 12.31039,-11.079355 c 1.07717,-0.969444 2.64674,-1.215653 3.9701,-0.630908 z M 95.672745,58.906719 c 0,-2.046604 -1.646516,-3.693119 -3.693118,-3.693119 -2.046604,0 -3.693119,1.646515 -3.693119,3.693119 0,2.046602 1.646515,3.693118 3.693119,3.693118 2.046602,0 3.693118,-1.646516 3.693118,-3.693118 z m 1.231039,11.2794 v 31.606941 c 4.354806,1.89272 7.386236,6.23214 7.386236,11.2794 0,6.80149 -5.508901,12.31039 -12.310393,12.31039 -6.801495,0 -12.310396,-5.5089 -12.310396,-12.31039 0,-5.04726 3.031434,-9.38668 7.386237,-11.2794 V 70.186119 c -4.354803,-1.89272 -7.386237,-6.232138 -7.386237,-11.2794 0,-6.801495 5.508901,-12.310396 12.310396,-12.310396 6.801492,0 12.310393,5.508901 12.310393,12.310396 0,5.047262 -3.03143,9.38668 -7.386236,11.2794 z m -1.231039,42.886341 c 0,-2.04661 -1.646516,-3.69313 -3.693118,-3.69313 -2.046604,0 -3.693119,1.64652 -3.693119,3.69313 0,2.0466 1.646515,3.69311 3.693119,3.69311 2.046602,0 3.693118,-1.64651 3.693118,-3.69311 z m 50.472635,3.69311 c 2.04659,0 3.69311,-1.64651 3.69311,-3.69311 0,-2.04661 -1.64652,-3.69313 -3.69311,-3.69313 -2.04661,0 -3.69313,1.64652 -3.69313,3.69313 0,2.0466 1.64652,3.69311 3.69313,3.69311 z"
     id="path1759-3"
     style="fill:#4c566a;stroke-width:0.153879" /></svg>
