<?xml version="1.0" encoding="UTF-8" standalone="no"?>
<!-- Created with Inkscape (http://www.inkscape.org/) -->

<svg
   width="238.125mm"
   height="171.97917mm"
   viewBox="0 0 238.125 171.97917"
   version="1.1"
   id="svg5"
   xml:space="preserve"
   inkscape:export-filename="bitmap.svg"
   inkscape:export-xdpi="96"
   inkscape:export-ydpi="96"
   sodipodi:docname="web.svg"
   inkscape:version="1.2.2 (b0a8486541, 2022-12-01)"
   xmlns:inkscape="http://www.inkscape.org/namespaces/inkscape"
   xmlns:sodipodi="http://sodipodi.sourceforge.net/DTD/sodipodi-0.dtd"
   xmlns="http://www.w3.org/2000/svg"
   xmlns:svg="http://www.w3.org/2000/svg"><sodipodi:namedview
     id="namedview7"
     pagecolor="#ffffff"
     bordercolor="#000000"
     borderopacity="0.24705882"
     inkscape:showpageshadow="2"
     inkscape:pageopacity="0.0"
     inkscape:pagecheckerboard="0"
     inkscape:deskcolor="#d1d1d1"
     inkscape:document-units="mm"
     showgrid="false"
     inkscape:zoom="1.0398006"
     inkscape:cx="374.59105"
     inkscape:cy="316.88768"
     inkscape:window-width="1898"
     inkscape:window-height="1010"
     inkscape:window-x="11"
     inkscape:window-y="59"
     inkscape:window-maximized="1"
     inkscape:current-layer="layer1"><inkscape:grid
       type="xygrid"
       id="grid126" /></sodipodi:namedview><defs
     id="defs2"><linearGradient
       id="A"
       x1="811.527"
       y1="574.895"
       x2="665.255"
       y2="573.732"
       gradientUnits="userSpaceOnUse"><stop
         offset="0"
         stop-color="#366a96"
         id="stop1512" /><stop
         offset="1"
         stop-color="#3679b0"
         id="stop1514" /></linearGradient><linearGradient
       id="B"
       x1="862.824"
       y1="642.176"
       x2="573.276"
       y2="642.176"
       gradientUnits="userSpaceOnUse"><stop
         offset="0"
         stop-color="#ffc836"
         id="stop1517" /><stop
         offset="1"
         stop-color="#ffe873"
         id="stop1519" /></linearGradient></defs><g
     inkscape:label="Layer 1"
     inkscape:groupmode="layer"
     id="layer1"
     transform="translate(-95.418556,-126.78654)"
     style="display:inline;fill:#d08770"><rect
       style="fill:#b48ead;fill-opacity:1;stroke-width:0.264583"
       id="rect1196"
       width="238.43665"
       height="172.04556"
       x="95.255379"
       y="126.95152" /></g><g
     inkscape:groupmode="layer"
     id="layer2"
     inkscape:label="Layer 2"
     style="display:inline" /><g
     id="g811"
     transform="matrix(2.0266028,0,0,2.0266028,54.21121,21.138296)"
     style="display:inline"><g
       id="Layer_1"><g
         id="g719"><circle
           cx="32"
           cy="32"
           fill="#77b3d4"
           r="32"
           id="circle717" /></g><g
         opacity="0.2"
         id="g723"><path
           d="m 52,48 c 0,2.209 -1.791,4 -4,4 H 16 c -2.209,0 -4,-1.791 -4,-4 V 18 c 0,-2.209 1.791,-4 4,-4 h 32 c 2.209,0 4,1.791 4,4 z"
           fill="#231f20"
           id="path721" /></g><g
         id="g727"><path
           d="M 12,21.5 V 46 c 0,2.209 1.791,4 4,4 h 32 c 2.209,0 4,-1.791 4,-4 V 21.5 Z"
           fill="#ffffff"
           id="path725" /></g><g
         opacity="0.2"
         id="g731"><path
           d="m 52,18 c 0,-2.209 -1.791,-4 -4,-4 H 16 c -2.209,0 -4,1.791 -4,4 v 6 h 40 z"
           fill="#231f20"
           id="path729" /></g><g
         id="g735"><path
           d="m 52,16 c 0,-2.209 -1.791,-4 -4,-4 H 16 c -2.209,0 -4,1.791 -4,4 v 6 h 40 z"
           fill="#e0e0d1"
           id="path733" /></g><g
         id="g739"><circle
           cx="23"
           cy="17"
           fill="#e0995e"
           r="2"
           id="circle737" /></g><g
         id="g743"><circle
           cx="29"
           cy="17"
           fill="#76c2af"
           r="2"
           id="circle741" /></g><g
         id="g747"><circle
           cx="17"
           cy="17"
           fill="#c75c5c"
           r="2"
           id="circle745" /></g><g
         id="g751"><rect
           fill="#4f5d73"
           height="18"
           width="12"
           x="16"
           y="28"
           id="rect749" /></g><g
         id="g755"><rect
           fill="#e0e0d1"
           height="2"
           width="16"
           x="32"
           y="28"
           id="rect753" /></g><g
         id="g759"><rect
           fill="#e0e0d1"
           height="2"
           width="16"
           x="32"
           y="32"
           id="rect757" /></g><g
         id="g763"><rect
           fill="#e0e0d1"
           height="2"
           width="16"
           x="32"
           y="36"
           id="rect761" /></g><g
         id="g767"><rect
           fill="#e0e0d1"
           height="2"
           width="16"
           x="32"
           y="40"
           id="rect765" /></g><g
         id="g771"><rect
           fill="#e0e0d1"
           height="2"
           width="16"
           x="32"
           y="44"
           id="rect769" /></g></g><g
       id="Layer_2" /></g></svg>
