<?xml version="1.0" encoding="UTF-8" standalone="no"?>
<svg
   id="Layer_1"
   viewBox="0 0 147.99 231.73"
   version="1.1"
   sodipodi:docname="profile.svg"
   inkscape:version="1.2.2 (b0a8486541, 2022-12-01)"
   xmlns:inkscape="http://www.inkscape.org/namespaces/inkscape"
   xmlns:sodipodi="http://sodipodi.sourceforge.net/DTD/sodipodi-0.dtd"
   xmlns="http://www.w3.org/2000/svg"
   xmlns:svg="http://www.w3.org/2000/svg">
  <sodipodi:namedview
     id="namedview35"
     pagecolor="#ffffff"
     bordercolor="#000000"
     borderopacity="0.25"
     inkscape:showpageshadow="2"
     inkscape:pageopacity="0.0"
     inkscape:pagecheckerboard="0"
     inkscape:deskcolor="#d1d1d1"
     showgrid="false"
     inkscape:zoom="2.6577915"
     inkscape:cx="25.773278"
     inkscape:cy="105.915"
     inkscape:window-width="1898"
     inkscape:window-height="986"
     inkscape:window-x="11"
     inkscape:window-y="83"
     inkscape:window-maximized="1"
     inkscape:current-layer="Layer_1" />
  <defs
     id="defs4">
    <style
       id="style2">.cls-1{fill:#6566ae;}.cls-2{fill:#7d7aba;}.cls-3{fill:#3a3a68;}.cls-4{fill:#2d2b73;}.cls-5{fill:#9d9dce;}</style>
  </defs>
  <path
     class="cls-1"
     d="m25.08,90.93c-6.03,3.47-9.72,5.1-13.44,5.01v2.69c.06,0,.14,0,.21,0,18.82.04,32.82-5.74,49.63,3.95.27.18.61.26.93.23-.42-17.47-26.65-17.35-37.33-11.89Z"
     id="path6" />
  <path
     class="cls-5"
     d="m 139.37,60.30801 c -3.4,-7.716184 -17.52,-15.823296 -27.69,-15.413753 -14.17,1.684716 -79.8,-4.746988 -90.61,5.426459 -5.05,3.443895 -9.73,6.552707 -10.52,9.987294 -0.92,3.797591 -0.67,31.506973 -0.11,48.51236 -0.54,35.21148 15.15,71.08382 31.69,88.93623 8.21,8.87035 23.362553,12.86119 33.092553,12.49819 10.41,-0.39094 21.817447,-3.08798 31.577447,-11.3161 0.86,-0.71669 0.87,-0.74461 1.65,-1.53579 33.7,-33.86184 32.77,-95.87986 30.93,-137.085583 z"
     id="path8"
     style="stroke-width:0.96477"
     sodipodi:nodetypes="ccccccccccc" />
  <g
     id="g14"
     transform="translate(0,-6)">
    <path
       class="cls-2"
       d="m 105.32,181.92 c -0.52,-2.19 -6.19,-2.25 -30.05,-0.58 -23.95,-1.67 -29.65,-1.61 -30.16,0.58 -0.72,3.05 8.15,8.04 13.5,10.18 6.67,2.67 12.98,1.85 16.6,1.67 3.61,0.18 10.01,1 16.65,-1.67 5.33,-2.14 14.17,-7.12 13.45,-10.18 z"
       id="path10" />
    <path
       class="cls-1"
       d="m 81.54,178.90348 c -2.5,0.30324 -4.59,0.80617 -6.27,1.32388 -1.69,-0.51771 -3.78,-1.02064 -6.29,-1.32388 -12.58,-1.52357 -26.17,2.42589 -25.51,3.79414 0.53,1.08721 9.91,2.5812 31.74,2.3889 21.75,0.19969 31.48,-1.25731 32.01,-2.33713 0.66,-1.36825 -13.15,-5.36208 -25.68,-3.83851 z"
       id="path12"
       style="stroke-width:0.859999" />
  </g>
  <path
     class="cls-3"
     d="m76.34,8.66c5.86.64,7.4,1.07,10.58,2.44h0s-19.11-1.38-19.11-1.38c0,0,2.52.17,0,0h0c-2.33-.29-12-.37-14.3.1h0l.31.02c2.39.13,4.75.55,7.03,1.26h0s-11.69.38-11.69.38c-1.02.03-2.04.11-3.06.24h0c-2.11.25-9.77,1.91-11.71,2.77h0c2,.13,3.91.86,5.48,2.09h0s-1.77-.13-1.77-.13c-3.83-.29-7.66.43-11.13,2.07h0s6.66.9,6.66.9l-4.39,1.01c-6.3,1.45-13.92,6.3-18.85,10.48h0l8.5-1.1h0c-4.49,2.66-9.57,8.8-12.61,13.04h0l1.11-.9c1.41-1.15,3.06-1.98,4.82-2.44h0c-1.97,2.86-3.73,5.85-5.26,8.97h0c-2.21,4.5-3.29,9.47-3.14,14.48l.69,22.43c.14,4.65.6,9.28,1.38,13.86l5.07,29.97v-27.63c0-.9.01-1.8.04-2.69.09-2.68.48-5.34,1.09-7.95l2.29-9.87.79-1.69c8.58-18.36,27.03-30.06,47.29-29.99l24.98.08c6.07,0,12.12.64,18.06,1.9,8.52,1.81,15.98,6.93,20.73,14.24h0c6.58,10.13,10,18.99,11.6,33.76l.91,28.59h0c2.71-8.45,4.47-17.18,5.07-26.03.84-12.46.11-24.15.04-37-.05-9.9-3.12-19.55-8.84-27.64h0c-9.7-9.22-21.88-17.48-34.04-23.07h0s-7.87-3.31-7.87-3.31c-1.76-.94-4.7-1.64-6.94-2.03-3.19-.56-6.59-.67-9.79-.19"
     id="path16" />
  <path
     class="cls-1"
     d="m 93.13,153.03 c -0.28,-1.06 -0.91,-1.94 -1.74,-2.55 -7.36,4.94 -17.08,6.17 -24.85,2.05 -0.42,-0.11 -0.83,-0.28 -1.22,-0.51 1.74,-1.24 6.13118,-25.88666 7.55118,-27.88666 7.68,-10.81 -0.51118,-4.34334 -1.63118,-4.28334 -0.64,0.03 -3.511702,6.10908 -5.881702,14.30908 C 61.968298,145.85908 58.5,151.67 57.57,154.01 l -0.01,0.01 v 0.03 c -0.08,0.23 -0.1,0.42 -0.04,0.57 -0.1,1.41 0.14,2.84 0.76,4.13 0.92,1.91 3.09,2.88 5.12,2.28 0.85,-0.25 1.53,-0.89 1.83,-1.73 0.55,-1.57 2.36,-2.3 3.85,-1.55 2.76,1.39 6,1.47 8.81,0.2 v 0 c 1.88,-0.84 4.06,-0.58 5.68,0.69 l 1.34,1.05 c 1.09,0.85 2.54,1.09 3.85,0.63 1.71,-0.6 3.04,-1.96 3.62,-3.67 l 0.69,-2.06 c 0.17,-0.51 0.19,-1.05 0.05,-1.57 z"
     id="path18"
     sodipodi:nodetypes="cccccccccccccccssccccccc" />
  <path
     class="cls-4"
     d="m 107.12,175.54 c -0.2,-0.19 -1.49,1.17 -3.78,1.51 -8.27,1.21 -18.36,1.13 -27.99,1.18 -9.64,-0.05 -19.73,0.03 -28,-1.18 -2.29,-0.34 -3.58,-1.7 -3.78,-1.51 -0.48,0.46 0.81,2.21 2.3,2.45 0,0 0,0 0,0 5.16,0.91 8.16,1.02 11.62,1.15 5.93,0.22 11.88,-0.07 17.82,0.15 v 0 c 0,0 0.03,0 0.04,0 0.01,0 0.03,0 0.04,0 v 0 c 5.93,-0.22 11.88,0.08 17.82,-0.15 3.46,-0.13 6.46,-0.24 11.62,-1.15 0,0 0,0 0,0 1.49,-0.24 2.78,-1.98 2.3,-2.45 z"
     id="path20" />
  <path
     class="cls-1"
     d="m118.2,117.5c-1.42,1.96-6.74-1.37-14.39-2.01-9.43-.79-14.94,3.12-15.52,1.9-.71-1.48,6.69-8.75,15.94-9.16,4.16-.19,10.98.91,13.41,5.52.29.56,1.38,2.61.56,3.74Z"
     id="path22"
     style="fill:#6566ae;fill-opacity:1" />
  <path
     class="cls-2"
     d="m112.31,117.03c-.33-3.32-3.31-5.75-6.66-5.43-2.35.23-4.26,1.76-5.07,3.8,1.01-.02,2.06,0,3.18.09,3.34.28,6.23,1.06,8.56,1.69,0-.05,0-.1,0-.16Z"
     id="path24"
     style="fill:#3a3a68;fill-opacity:1" />
  <path
     class="cls-1"
     d="m60.89,118.45c-1.42,1.96-6.74-1.37-14.39-2.01-9.43-.79-14.94,3.12-15.52,1.9-.71-1.48,6.69-8.75,15.94-9.16,4.16-.19,10.98.91,13.41,5.52.29.56,1.38,2.61.56,3.74Z"
     id="path26"
     style="fill:#6566ae;fill-opacity:1" />
  <path
     class="cls-2"
     d="m55,117.98c-.33-3.32-3.31-5.75-6.66-5.43-2.35.23-4.26,1.76-5.07,3.8,1.01-.02,2.06,0,3.18.09,3.34.28,6.23,1.06,8.56,1.69,0-.05,0-.1,0-.16Z"
     id="path28"
     style="fill:#3a3a68;fill-opacity:1" />
  <path
     class="cls-1"
     d="m67.84,102.91s0,0,0,0c0,0-1.06-5.37-5.72-7.7-1.09-.55-8.19-2.72-13.52-3.29-2.78-.3-5.58-.2-8.33.29l-.27.05c-4.04.72-7.81,2.53-10.89,5.24h0c-2.89,2.54-4.54,6.19-4.54,10.03h0s0,0,0,0h0s0,0,0,0c12.07-4.36,24.92-6.09,37.71-5.07l5.56.44Z"
     id="path30" />
  <path
     class="cls-1"
     d="m82.86,102.91s0,0,0,0c0,0,1.06-5.37,5.72-7.7,1.09-.55,8.19-2.72,13.52-3.29,2.78-.3,5.58-.2,8.33.29l.27.05c4.04.72,7.81,2.53,10.89,5.24h0c2.89,2.54,4.54,6.19,4.54,10.03h0s0,0,0,0h0s0,0,0,0c-12.07-4.36-24.92-6.09-37.71-5.07l-5.56.44Z"
     id="path32" />
</svg>
